# xmcd CD database file
# Copyright (C) 1993-1998 Ti Kan
#
# Track frame offsets:
# 150
# 27219
# 50895
# 66750
# 102412
# 133552
# 153712
# 170105
# 199112
# 224297
# 249765
# 270450
#
# Disc length: 3989 seconds
#
# Revision: 0
# Processed by: cddbd v1.4b41PL1 Copyright (c) Steve Scherf et al.
# Submitted via: inCDius 1.1b8
#
DISCID=b00f930c
DTITLE=Red Archibald and The Internationals - West Coast Soul Stew
DYEAR=1900
DGENRE=
TTITLE0=Straighten Up Baby
TTITLE1=I Love It When You Fax Me
TTITLE2=1% Bounce
TTITLE3=Been There Done That
TTITLE4=Too Many People On The Street
TTITLE5=Love To Love You
TTITLE6=I Like It Like That
TTITLE7=Baby You're The One
TTITLE8=Messed Things Up
TTITLE9=You Think You Got It Made
TTITLE10=Getaway
TTITLE11=Clay's Blues
EXTD=
EXTT0=
EXTT1=
EXTT2=
EXTT3=
EXTT4=
EXTT5=
EXTT6=
EXTT7=
EXTT8=
EXTT9=
EXTT10=
EXTT11=
PLAYORDER=
